<?xml version="1.0" encoding="UTF-8"?>
<svg xmlns="http://www.w3.org/2000/svg" xmlns:xlink="http://www.w3.org/1999/xlink" version="1.1" id="Layer_1" x="0px" y="0px" viewBox="0 0 132 132">
<style type="text/css">
	.st0,.st1{filter:url(#dropshadow)}
	.st0{fill:#003d8b}
	.st1{fill:#fc0}
</style>
<filter id="dropshadow" height="130%">
  <feGaussianBlur in="SourceAlpha" stdDeviation="3"/> <!-- stdDeviation is how much to blur -->
  <feOffset dx="2" dy="2" result="offsetblur"/> <!-- how much to offset -->
  <feComponentTransfer>
    <feFuncA type="linear" slope="0.5"/> <!-- slope is the opacity of the shadow -->
  </feComponentTransfer>
  <feMerge> 
    <feMergeNode/> <!-- this contains the offset blurred image -->
    <feMergeNode in="SourceGraphic"/> <!-- this contains the element that the filter is applied to -->
  </feMerge>
</filter>
<g>
	<path class="st0" d="M30,16.1c0,0,0.1,0,0.1,0c0.7,0.1,1.3,0.1,2,0.2c0.2,0,0.3,0,0.5,0c0.6,0,1.2,0.1,1.7,0.1c0.2,0,0.5,0,0.8,0   c0.5,0,1,0.1,1.6,0.1c0.3,0,0.7,0,1,0c0.5,0,0.9,0,1.4,0.1c0.4,0,0.8,0,1.2,0c0.4,0,0.8,0,1.2,0c0.5,0,1.1,0,1.6,0   c0.3,0,0.6,0,0.9,0c0.9,0,1.7,0,2.6,0c0.9,0,1.7,0,2.6,0c0.2,0,0.5,0,0.7,0c0.6,0,1.2,0,1.8,0c0.3,0,0.7,0,1,0c0.5,0,1,0,1.5,0   c0.3,0,0.7,0,1,0c0.5,0,0.9,0,1.4-0.1c0.4,0,0.7,0,1-0.1c0.4,0,0.9,0,1.3-0.1c0.3,0,0.6,0,0.9-0.1c0.4,0,0.9-0.1,1.3-0.1   c0.3,0,0.6,0,0.9-0.1c0.4,0,0.9-0.1,1.3-0.1c0.3,0,0.6-0.1,0.9-0.1c0.4,0,0.8-0.1,1.2-0.1c0.3,0,0.6-0.1,0.9-0.1   c0.4,0,0.8-0.1,1.2-0.1c0.3,0,0.5-0.1,0.8-0.1c0.4,0,0.8-0.1,1.2-0.1c0.3,0,0.5-0.1,0.8-0.1c0.4,0,0.7-0.1,1.1-0.1   c0.2,0,0.5-0.1,0.7-0.1c0.4-0.1,0.7-0.1,1.1-0.2c0.2,0,0.4-0.1,0.7-0.1c0.4-0.1,0.7-0.1,1.1-0.2c0.2,0,0.4-0.1,0.7-0.1   c0.3-0.1,0.7-0.1,1-0.2c0.2,0,0.4-0.1,0.6-0.1c0.3-0.1,0.6-0.1,0.9-0.2c0.2,0,0.4-0.1,0.6-0.1c0.3-0.1,0.6-0.1,0.9-0.2   c0.2,0,0.4-0.1,0.6-0.1c0.3-0.1,0.6-0.1,0.9-0.2c0.2,0,0.3-0.1,0.5-0.1c0.3-0.1,0.6-0.1,0.8-0.2c0.2,0,0.3-0.1,0.5-0.1   c0.3-0.1,0.5-0.1,0.8-0.2c0.2,0,0.3-0.1,0.5-0.1c0.2-0.1,0.5-0.1,0.7-0.2c0.1,0,0.3-0.1,0.4-0.1c0.2-0.1,0.4-0.1,0.7-0.2   c0.1,0,0.3-0.1,0.4-0.1c0.2-0.1,0.4-0.1,0.6-0.2c0.1,0,0.2-0.1,0.4-0.1c0.2-0.1,0.4-0.1,0.6-0.2c0.1,0,0.2-0.1,0.3-0.1   c0.2-0.1,0.3-0.1,0.5-0.2c0.1,0,0.2-0.1,0.3-0.1c0.2-0.1,0.3-0.1,0.4-0.2c0.1,0,0.2-0.1,0.3-0.1c0.1-0.1,0.3-0.1,0.4-0.2   c0.1,0,0.2-0.1,0.2-0.1c0.1-0.1,0.2-0.1,0.3-0.2c0.1,0,0.1-0.1,0.2-0.1c0.1-0.1,0.2-0.1,0.3-0.2c0.1,0,0.1-0.1,0.2-0.1   c0.1-0.1,0.2-0.1,0.2-0.2c0.1,0,0.1-0.1,0.1-0.1C92,9.5,92,9.4,92.1,9.4c0,0,0.1-0.1,0.1-0.1c0-0.1,0.1-0.1,0.1-0.2   c0,0,0-0.1,0.1-0.1c0,0,0-0.1,0.1-0.1C91.3,6.1,74.8,1,46.7,1C18.7,1,2.2,6.1,1,8.9C1.9,11,12.2,14.6,30,16.1z" />
	<path class="st0" d="M1,29.9c0.9,2.7,17.4,7.9,45.7,7.9s44.8-5.2,45.7-7.9l0-14.5c-0.4,0.2-0.8,0.4-1.2,0.6   C91.2,16,91.1,16,91,16.1c-0.3,0.1-0.6,0.3-1,0.4c-0.1,0.1-0.3,0.1-0.4,0.2c-0.4,0.2-0.9,0.3-1.3,0.5c0,0,0,0-0.1,0   c-0.5,0.2-1,0.3-1.5,0.5c-0.1,0-0.3,0.1-0.4,0.1c-0.4,0.1-0.7,0.2-1.1,0.3c-0.2,0-0.3,0.1-0.5,0.1c-0.5,0.1-1,0.3-1.5,0.4   c0,0-0.1,0-0.1,0c-0.5,0.1-1.1,0.3-1.7,0.4c-0.2,0-0.3,0.1-0.5,0.1c-0.4,0.1-0.8,0.2-1.3,0.3c-0.2,0-0.4,0.1-0.5,0.1   c-0.5,0.1-1.1,0.2-1.7,0.3c0,0-0.1,0-0.1,0c-0.6,0.1-1.2,0.2-1.8,0.3c-0.2,0-0.4,0.1-0.6,0.1c-0.4,0.1-0.9,0.1-1.3,0.2   c-0.2,0-0.4,0.1-0.6,0.1c-0.6,0.1-1.2,0.2-1.8,0.2c0,0-0.1,0-0.1,0c-0.6,0.1-1.3,0.2-1.9,0.2c-0.2,0-0.4,0-0.6,0.1   c-0.5,0-0.9,0.1-1.4,0.1c-0.2,0-0.4,0-0.6,0.1c-0.6,0.1-1.2,0.1-1.8,0.2c0,0-0.1,0-0.1,0c-0.6,0.1-1.3,0.1-1.9,0.2   c-0.2,0-0.4,0-0.6,0c-0.5,0-0.9,0.1-1.4,0.1c-0.2,0-0.4,0-0.6,0c-0.6,0-1.2,0.1-1.8,0.1c0,0,0,0-0.1,0c-0.6,0-1.2,0.1-1.9,0.1   c-0.2,0-0.4,0-0.6,0c-0.4,0-0.9,0-1.3,0.1c-0.2,0-0.4,0-0.6,0c-0.6,0-1.2,0-1.8,0.1c0,0,0,0,0,0c-0.6,0-1.2,0-1.7,0   c-0.2,0-0.4,0-0.5,0c-0.4,0-0.8,0-1.2,0c-0.2,0-0.3,0-0.5,0c-0.6,0-1.1,0-1.6,0s-1.1,0-1.6,0c-0.2,0-0.3,0-0.5,0   c-0.4,0-0.8,0-1.2,0c-0.2,0-0.4,0-0.5,0c-0.6,0-1.2,0-1.7,0c0,0,0,0,0,0c-0.6,0-1.2,0-1.8-0.1c-0.2,0-0.4,0-0.6,0   c-0.4,0-0.9,0-1.3-0.1c-0.2,0-0.4,0-0.6,0c-0.6,0-1.2-0.1-1.8-0.1c0,0-0.1,0-0.1,0c-0.6,0-1.2-0.1-1.8-0.1c-0.2,0-0.4,0-0.6,0   c-0.5,0-0.9-0.1-1.4-0.1c-0.2,0-0.4,0-0.6,0c-0.6,0-1.2-0.1-1.9-0.1c-0.1,0-0.1,0-0.2,0c-0.6-0.1-1.2-0.1-1.7-0.2   c-0.2,0-0.4,0-0.6-0.1c-0.5,0-0.9-0.1-1.4-0.1c-0.2,0-0.4,0-0.6-0.1c-0.6-0.1-1.3-0.1-1.9-0.2c-0.1,0-0.1,0-0.2,0   c-0.6-0.1-1.2-0.1-1.7-0.2c-0.2,0-0.4-0.1-0.6-0.1c-0.4-0.1-0.9-0.1-1.3-0.2c-0.2,0-0.4-0.1-0.6-0.1c-0.6-0.1-1.2-0.2-1.8-0.3   c-0.1,0-0.1,0-0.2,0c-0.5-0.1-1.1-0.2-1.6-0.3c-0.2,0-0.4-0.1-0.6-0.1c-0.4-0.1-0.8-0.2-1.2-0.3c-0.2,0-0.4-0.1-0.5-0.1   c-0.6-0.1-1.1-0.2-1.7-0.4c0,0-0.1,0-0.1,0c-0.5-0.1-1-0.2-1.5-0.4c-0.2,0-0.3-0.1-0.5-0.1c-0.4-0.1-0.8-0.2-1.1-0.3   c-0.2,0-0.3-0.1-0.5-0.1c-0.5-0.2-1-0.3-1.5-0.5c0,0-0.1,0-0.1,0c-0.4-0.2-0.9-0.3-1.3-0.5c-0.1-0.1-0.3-0.1-0.4-0.2   c-0.3-0.1-0.6-0.3-0.9-0.4C2.4,16,2.3,16,2.2,15.9c-0.4-0.2-0.8-0.4-1.2-0.6V29.9z" />
	<path class="st0" d="M92.5,58.1c-9.9,5.2-31.5,6.7-45.7,6.7S10.9,63.3,1,58.1v14.6c0.9,2.7,17.4,7.9,45.7,7.9   c8.5,0,16.8-0.5,24-1.4c0-3.3,0.2-5.4,0.2-5.5c0.1-1.3,1.1-2.3,2.4-2.4c0.8-0.1,1.7-0.2,2.5-0.3c0.2,0,0.4-0.1,0.6-0.1   c0.8-0.1,1.5-0.2,2.3-0.4c0.2,0,0.3-0.1,0.5-0.1c0.6-0.1,1.2-0.3,1.8-0.4c0.2,0,0.4-0.1,0.6-0.1c0.7-0.2,1.3-0.4,2-0.6   c0.2-0.1,0.4-0.1,0.6-0.2c0.7-0.2,1.3-0.4,1.9-0.7c0.1,0,0.2-0.1,0.3-0.1c2.2-0.9,4.2-1.9,6.1-3.2V58.1z" />
	<path class="st0" d="M46.7,43.5c-14.2,0-35.8-1.6-45.7-6.7v14.6c0.9,2.7,17.4,7.9,45.7,7.9c28.3,0,44.8-5.2,45.7-7.9l0-14.5   C82.5,41.9,61,43.5,46.7,43.5z" />
	<path class="st0" d="M46.7,86.2c-14.2,0-35.8-1.6-45.7-6.7v14.6c0.9,2.7,17.4,7.9,45.7,7.9c9.6,0,19.1-0.6,27-1.8   c-1.6-5.6-2.4-11-2.7-15.3C63.6,85.7,55.3,86.2,46.7,86.2z" />
	<path class="st1" d="M127,76.4c-14.4-1.9-22-8.1-25.4-12.1c-1.8,2-4.7,4.7-9,7.1c-0.1,0.1-0.3,0.1-0.4,0.2   c-0.6,0.3-1.1,0.6-1.7,0.9c-0.2,0.1-0.4,0.2-0.6,0.3c-0.7,0.3-1.4,0.6-2.1,0.9c-0.3,0.1-0.6,0.2-0.9,0.3c-0.5,0.2-0.9,0.3-1.4,0.5   c-0.4,0.1-0.8,0.2-1.1,0.3c-0.4,0.1-0.9,0.3-1.4,0.4c-0.4,0.1-0.8,0.2-1.2,0.3c-0.5,0.1-1.1,0.2-1.6,0.3c-0.3,0.1-0.7,0.1-1,0.2   c-0.9,0.2-1.8,0.3-2.8,0.4c-0.3,8.3,0.4,38.6,25.4,50.6C126.6,114.9,127.3,84.7,127,76.4z" />
</g>
</svg>
